<svg width="257" height="30" viewBox="0 0 257 30" fill="none" xmlns="http://www.w3.org/2000/svg">
<rect width="257" height="30" rx="15" fill="#F0EDEE"/>
<rect x="1" y="1" width="255" height="28" rx="14" stroke="#07393C" stroke-opacity="0.9" stroke-width="2"/>
<path d="M110.508 7.07031V22H107.935V7.07031H110.508ZM116.599 13.6021V15.6426H109.852V13.6021H116.599ZM117.45 7.07031V9.12109H109.852V7.07031H117.45ZM121.9 10.9053V22H119.419V10.9053H121.9ZM119.255 7.99316C119.255 7.61719 119.378 7.30615 119.624 7.06006C119.877 6.80713 120.226 6.68066 120.67 6.68066C121.107 6.68066 121.453 6.80713 121.706 7.06006C121.958 7.30615 122.085 7.61719 122.085 7.99316C122.085 8.3623 121.958 8.66992 121.706 8.91602C121.453 9.16211 121.107 9.28516 120.67 9.28516C120.226 9.28516 119.877 9.16211 119.624 8.91602C119.378 8.66992 119.255 8.3623 119.255 7.99316ZM127.253 6.25V22H124.771V6.25H127.253ZM135.046 10.9053V12.71H128.791V10.9053H135.046ZM130.596 8.18799H133.067V18.9341C133.067 19.2759 133.115 19.5391 133.21 19.7236C133.313 19.9014 133.453 20.021 133.631 20.0825C133.809 20.144 134.017 20.1748 134.256 20.1748C134.427 20.1748 134.591 20.1646 134.749 20.144C134.906 20.1235 135.032 20.103 135.128 20.0825L135.138 21.9692C134.933 22.0308 134.694 22.0854 134.42 22.1333C134.154 22.1812 133.846 22.2051 133.498 22.2051C132.93 22.2051 132.428 22.106 131.99 21.9077C131.553 21.7026 131.211 21.3711 130.965 20.9131C130.719 20.4551 130.596 19.8467 130.596 19.0879V8.18799ZM139.435 13.0176V22H136.963V10.9053H139.322L139.435 13.0176ZM142.829 10.8335L142.808 13.1304C142.658 13.103 142.494 13.0825 142.316 13.0688C142.145 13.0552 141.974 13.0483 141.803 13.0483C141.379 13.0483 141.007 13.1099 140.686 13.2329C140.364 13.3491 140.094 13.52 139.875 13.7456C139.664 13.9644 139.5 14.231 139.383 14.5454C139.267 14.8599 139.199 15.2119 139.178 15.6016L138.614 15.6426C138.614 14.9453 138.683 14.2993 138.819 13.7046C138.956 13.1099 139.161 12.5869 139.435 12.1357C139.715 11.6846 140.063 11.3325 140.48 11.0796C140.904 10.8267 141.393 10.7002 141.947 10.7002C142.097 10.7002 142.258 10.7139 142.429 10.7412C142.606 10.7686 142.74 10.7993 142.829 10.8335ZM149.063 22.2051C148.243 22.2051 147.501 22.0718 146.838 21.8052C146.182 21.5317 145.621 21.1523 145.156 20.667C144.698 20.1816 144.346 19.6108 144.1 18.9546C143.854 18.2983 143.731 17.5908 143.731 16.832V16.4219C143.731 15.5537 143.857 14.7676 144.11 14.0635C144.363 13.3594 144.715 12.7578 145.167 12.2588C145.618 11.7529 146.151 11.3667 146.766 11.1001C147.381 10.8335 148.048 10.7002 148.766 10.7002C149.559 10.7002 150.252 10.8335 150.847 11.1001C151.442 11.3667 151.934 11.7427 152.324 12.228C152.72 12.7065 153.014 13.2773 153.206 13.9404C153.404 14.6035 153.503 15.335 153.503 16.1348V17.1909H144.931V15.417H151.062V15.2222C151.049 14.7778 150.96 14.3608 150.796 13.9712C150.639 13.5815 150.396 13.2671 150.068 13.0278C149.74 12.7886 149.302 12.6689 148.755 12.6689C148.345 12.6689 147.979 12.7578 147.658 12.9355C147.344 13.1064 147.081 13.356 146.869 13.6841C146.657 14.0122 146.493 14.4087 146.376 14.8735C146.267 15.3315 146.212 15.8477 146.212 16.4219V16.832C146.212 17.3174 146.277 17.7686 146.407 18.1855C146.544 18.5957 146.742 18.9546 147.002 19.2622C147.262 19.5698 147.576 19.8125 147.945 19.9902C148.314 20.1611 148.735 20.2466 149.207 20.2466C149.801 20.2466 150.331 20.127 150.796 19.8877C151.261 19.6484 151.664 19.3101 152.006 18.8726L153.308 20.1338C153.069 20.4824 152.758 20.8174 152.375 21.1387C151.992 21.4531 151.524 21.7095 150.97 21.9077C150.423 22.106 149.788 22.2051 149.063 22.2051ZM157.912 13.0176V22H155.441V10.9053H157.799L157.912 13.0176ZM161.306 10.8335L161.286 13.1304C161.135 13.103 160.971 13.0825 160.793 13.0688C160.623 13.0552 160.452 13.0483 160.281 13.0483C159.857 13.0483 159.484 13.1099 159.163 13.2329C158.842 13.3491 158.572 13.52 158.353 13.7456C158.141 13.9644 157.977 14.231 157.861 14.5454C157.745 14.8599 157.676 15.2119 157.656 15.6016L157.092 15.6426C157.092 14.9453 157.16 14.2993 157.297 13.7046C157.434 13.1099 157.639 12.5869 157.912 12.1357C158.192 11.6846 158.541 11.3325 158.958 11.0796C159.382 10.8267 159.871 10.7002 160.424 10.7002C160.575 10.7002 160.735 10.7139 160.906 10.7412C161.084 10.7686 161.217 10.7993 161.306 10.8335Z" fill="#2C666E"/>
<path d="M77.1707 20C77.5825 18.8348 78.6938 18 80 18C81.3062 18 82.4175 18.8348 82.8293 20H93V22H82.8293C82.4175 23.1652 81.3062 24 80 24C78.6938 24 77.5825 23.1652 77.1707 22H73V20H77.1707ZM83.1707 13C83.5825 11.8348 84.6938 11 86 11C87.3062 11 88.4175 11.8348 88.8293 13H93V15H88.8293C88.4175 16.1652 87.3062 17 86 17C84.6938 17 83.5825 16.1652 83.1707 15H73V13H83.1707ZM77.1707 6C77.5825 4.83481 78.6938 4 80 4C81.3062 4 82.4175 4.83481 82.8293 6H93V8H82.8293C82.4175 9.16519 81.3062 10 80 10C78.6938 10 77.5825 9.16519 77.1707 8H73V6H77.1707ZM80 8C80.5523 8 81 7.55228 81 7C81 6.44772 80.5523 6 80 6C79.4477 6 79 6.44772 79 7C79 7.55228 79.4477 8 80 8ZM86 15C86.5523 15 87 14.5523 87 14C87 13.4477 86.5523 13 86 13C85.4477 13 85 13.4477 85 14C85 14.5523 85.4477 15 86 15ZM80 22C80.5523 22 81 21.5523 81 21C81 20.4477 80.5523 20 80 20C79.4477 20 79 20.4477 79 21C79 21.5523 79.4477 22 80 22Z" fill="#2C666E" fill-opacity="0.7"/>
</svg>
