<svg width="21" height="21" viewBox="0 0 21 21" fill="none" xmlns="http://www.w3.org/2000/svg">
<path d="M2 14V2H0V0H3C3.55229 0 4 0.44772 4 1V13H16.4384L18.4384 5H6V3H19.7192C20.2715 3 20.7192 3.44772 20.7192 4C20.7192 4.08176 20.7092 4.16322 20.6893 4.24254L18.1893 14.2425C18.0781 14.6877 17.6781 15 17.2192 15H3C2.44772 15 2 14.5523 2 14ZM4 21C2.89543 21 2 20.1046 2 19C2 17.8954 2.89543 17 4 17C5.10457 17 6 17.8954 6 19C6 20.1046 5.10457 21 4 21ZM16 21C14.8954 21 14 20.1046 14 19C14 17.8954 14.8954 17 16 17C17.1046 17 18 17.8954 18 19C18 20.1046 17.1046 21 16 21Z" fill="black"/>
</svg>
